# xmcd
# 
# Track frame offsets:
#	150
#	13313
#	27275
#	45674
#	58501
#	70683
#	86796
#	97284
#	112258
#	129842
#	140400
#	150231
#	162010
#	175182
#	192915
#	206986
#
# Disc length: 2934 seconds
#
# Revision: 1
# Processed by: cddbd v1.4PL0 Copyright (c) Steve Scherf et al.
# Submitted via: Audio-CD-Archiv 2.10.440
#
DISCID=de0b7410
DTITLE=Diverse - Mani wird 50
DYEAR=1900
DGENRE=country
TTITLE0=Roy Orbison - Pretty Woman
TTITLE1=Country Roads
TTITLE2=Don't bring me down
TTITLE3=Hello Josephine
TTITLE4=Chuck Berry - Roll over Beethoven
TTITLE5=Tom Astor - Junger Adler
TTITLE6=Let`s twist again
TTITLE7=Love is all aroiund
TTITLE8=Tom Astor - Lucille
TTITLE9=Freddy Quinn - Tom Dooley
TTITLE10=Bill Haley - Rocj around the clock
TTITLE11=Running Bear
TTITLE12=Flower Pot Men - San Francisco
TTITLE13=Volle Granate Reante
TTITLE14=Jean Shepard - Tom Dooley
TTITLE15=George Thorogode - Why don't you get a job
EXTD=
EXTT0=
EXTT1=
EXTT2=
EXTT3=
EXTT4=
EXTT5=
EXTT6=
EXTT7=
EXTT8=
EXTT9=
EXTT10=
EXTT11=
EXTT12=
EXTT13=
EXTT14=
EXTT15=
PLAYORDER=
